    <svg width="515" height="750" viewBox="0 0 515 750" fill="none" xmlns="http://www.w3.org/2000/svg">
    <path d="M177.6 4.39996C176.8 6.79996 173.733 10.2666 170.8 12.2666C164.4 16.7999 163.333 18.9333 166 21.9999C167.067 23.1999 168 26.2666 168 28.6666C168 33.8666 169.333 33.0666 171.6 26.2666L173.333 21.3333L172.667 25.9999C171.867 31.0666 168.267 36.7999 165.2 37.7333C163.733 38.2666 163.6 38 165.067 36.5333C165.867 35.6 166.667 32.5333 166.667 29.7333C166.667 23.3333 162.667 19.1999 152.8 15.4666L146 12.9333L144.133 22.6666C142 34.1333 142.667 38.2666 147.333 40.4C152.667 42.8 154 42.2666 150.133 39.2C148.267 37.7333 146.667 35.4666 146.667 34.2666C146.8 32.1333 146.8 32.1333 148 34.1333C148.667 35.3333 150.933 37.3333 152.8 38.6666L156.4 40.9333L155.6 35.9999C155.2 33.1999 153.733 29.8667 152.533 28.5333C151.333 27.0667 150.933 25.9999 151.733 25.9999C153.867 25.9999 157.333 31.4666 157.467 35.3333C157.6 38.5333 157.6 38.5333 158.8 34.6666C159.467 32.4 159.733 29.5999 159.467 28.2666C159.2 27.0666 159.467 25.9999 160.133 25.9999C162.4 25.9999 162.8 32.4 160.8 36.5333C158.8 40.2667 160 42.6666 162 39.3333C162.533 38.5333 163.333 38.2666 164 38.6666C164.667 39.0666 167.867 38.1333 170.933 36.5333C174.8 34.6667 176 34.3999 174.667 35.7333C173.6 36.9333 170.933 38.7999 168.667 39.9999L164.667 41.9999L168 42.9333L171.333 43.8666L168 44.8C165.2 45.6 165.467 45.7333 169.867 45.8666C179.2 46.1333 173.733 47.6 162 48.1333C152 48.4 150.667 48.2667 152.133 46.5333C153.867 44.4 154 44.3999 148.933 42.2666C144.667 40.3999 140.933 41.7333 138.667 45.9999C137.867 47.4666 136.667 48.6666 135.867 48.6666C135.067 48.6666 134.933 48 135.467 47.2C136.133 46.1333 135.6 46.1333 133.6 47.2C131.067 48.5333 106.667 49.3333 106.667 48.1333C106.667 47.8666 107.867 44.8 109.333 41.3333L112 35.2L105.6 32.4C90.2667 25.7333 82.5333 28.5333 79.4667 41.9999L77.7333 49.3333L77.8667 39.7333C78 30.7999 77.7333 29.8667 73.6 25.0667C71.2 22.2667 67.6 17.7333 65.6 15.0667C61.4667 9.46665 60.6667 9.0666 59.4667 12.2666C59.0667 13.5999 56.6667 17.6 54 21.2C48.6667 28.5333 48.1333 32.5333 52.1333 36.1333C54.8 38.5333 60.6667 48.6666 59.4667 48.6666C59.2 48.6666 57.3333 45.8667 55.3333 42.5333C51.4667 35.8667 45.2 31.3333 39.8667 31.3333C35.6 31.3333 28.9333 36.2666 23.7333 43.3333C21.4667 46.2666 17.6 50.1333 15.0667 51.8666L10.5333 54.9333L16 55.8666C19.7333 56.4 23.2 58.3999 27.2 61.9999C32.4 66.7999 37.3333 68.9333 37.3333 66.2666C37.3333 64.5333 44.8 60.6666 48.1333 60.6666C53.4667 60.6666 49.4667 58.8 42.2667 57.8666L35.3333 57.0667L42.2667 56.8C50.2667 56.6667 53.3333 57.6 53.3333 60.1333C53.3333 61.3333 51.7333 61.9999 48.8 61.9999C40.2667 61.9999 35.8667 68 33.4667 83.3333L32.4 90.2667L36.9333 89.3333C43.4667 88.1333 53.3333 89.8667 53.3333 92.2667C53.3333 93.3333 52.8 93.8666 52.2667 93.4666C50.6667 92.5333 44.5333 99.1999 42.8 103.733C40.9333 108.533 40.9333 112.667 42.6667 112.667C43.4667 112.667 44 111.467 44 110C44 106.4 46.9333 100.667 50.5333 97.4666L53.3333 94.9333V101.867C53.3333 105.6 52.1333 114.533 50.5333 121.6C47.8667 134 47.8667 134.533 50.1333 140.533C54.4 151.333 53.7333 152.267 47.0667 146.133C44.8 144 41.0667 138.667 38.8 134.267C36.5333 129.733 33.6 125.6 32.4 124.8C30.1333 123.467 30.1333 123.467 32.4 123.333C35.7333 123.333 40.5333 128.4 44.5333 136.533C48.4 144.133 49.8667 145.467 47.7333 139.333C46.8 136.4 46.8 132.8 48 126.533C50 116 48.9333 114.667 41.0667 117.467C38.2667 118.4 34.1333 118.933 32 118.533C29.8667 118 26.5333 118.133 24.6667 118.533L21.2 119.467L25.2 123.2C27.4667 125.333 29.3333 127.6 29.3333 128.4C29.3333 129.067 31.0667 131.867 33.3333 134.667C35.4667 137.333 37.6 141.6 38.1333 144C38.5333 146.533 39.7333 148.8 40.8 149.2C41.8667 149.6 42.6667 151.467 42.6667 153.333C42.6667 155.2 44.1333 159.733 46 163.333C49.8667 171.067 50.2667 177.467 47.0667 181.067C44.6667 183.733 44.8 183.733 49.0667 182.933L53.3333 182V188.8C53.3333 195.6 53.3333 195.6 49.7333 194.667C47.6 194.133 43.8667 193.6 41.3333 193.333C38.8 193.067 36.2667 192.8 35.7333 192.8C35.0667 192.667 34.6667 192.267 34.6667 191.6C34.6667 191.067 37.4667 190.8 41.0667 191.067C45.7333 191.333 46.8 191.067 45.3333 190C44.2667 189.2 40 188.8 36 188.933C28.6667 189.2 28.6667 189.2 28.2667 184.933C27.7333 179.067 31.4667 171.867 36.8 168.533C39.3333 167.067 40.9333 165.2 40.5333 164.533C39.0667 162.133 31.3333 168.267 28.4 174.133C24.6667 181.2 24.5333 184.667 27.8667 195.2C30.1333 202.4 30.1333 203.2 28.1333 202.133C26.9333 201.467 24.4 199.2 22.5333 197.067C14.9333 188.933 12.6667 179.6 16.8 173.333C18 171.6 18.5333 169.467 18 168.667C16.6667 166.533 12 175.867 12 180.667C12 189.2 21.0667 202.533 29.2 205.867C31.2 206.8 34.2667 209.733 35.8667 212.667C37.3333 215.467 39.6 218 40.6667 218.4C41.7333 218.933 39.7333 213.733 35.8667 206.267L29.0667 193.333L35.2 199.6C42 206.533 43.6 206 37.3333 198.8L33.2 194.267L38 194.533C40.6667 194.8 43.6 195.733 44.4 196.533C45.6 197.867 45.0667 198 42 197.2L38 196.267L43.3333 201.2C46.4 203.867 49.6 205.733 50.9333 205.467C53.0667 204.933 53.3333 206.267 53.3333 218.4C53.2 230.667 53.0667 231.733 51.3333 229.467C50.2667 228 49.3333 226.4 49.3333 225.733C49.3333 223.867 38.9333 219.333 34.6667 219.333C32.4 219.333 26.9333 221.333 22.5333 223.6C15.3333 227.733 12.8 230 16 230C16.6667 230 20.2667 232.667 24 236C31.6 242.8 35.0667 244 43.0667 242.8C53.7333 241.2 53.3333 239.733 53.3333 274.533C53.2 299.333 52.9333 305.867 51.3333 307.867C50.2667 309.333 49.2 310.267 48.9333 309.867C48.8 309.6 47.7333 307.733 46.8 305.867C43.7333 299.733 33.7333 289.2 26.6667 284.667C23.0667 282.267 20 279.467 20 278.4C20 277.2 21.0667 273.467 22.2667 269.867C24.5333 263.467 24.5333 263.333 21.6 259.733C20 257.733 17.4667 253.733 16.1333 251.067L13.8667 246.133L7.46665 251.733C1.99999 256.533 0.93332 258.267 0.399986 263.333C-0.133347 268.533 0.266653 270.133 3.33332 273.733C5.33332 276.133 9.19999 278.667 12.4 279.6C15.4667 280.533 20.4 283.067 23.2 285.333C31.0667 291.333 41.8667 301.867 41.0667 302.8C40.6667 303.2 36.4 301.6 31.7333 299.2C21.3333 294.133 15.7333 294.533 9.46665 300.8C4.13332 306.133 3.06665 312.4 5.99999 321.733C7.86665 327.867 8.53332 328.8 9.59999 326.8C10.2667 325.6 14.4 322.933 18.6667 321.067C25.6 318.133 26.6667 317.067 29.2 311.2C32.4 303.467 34.6667 302.267 40.6667 305.067C44.1333 306.667 45.7333 308.8 47.8667 314.8C52.9333 328.133 52.9333 332.8 48.1333 339.867C36.4 356.933 34.8 373.333 44.1333 381.2C49.4667 385.733 50.6667 385.6 50.8 380.267C50.8 378 51.3333 374.8 52 373.333C52.6667 371.867 53.2 453.333 53.2 560.267L53.3333 750H284H514.667V399.333V48.6666H424.133H333.6L330.933 44.1333C327.2 37.8666 320.8 35.8666 311.867 37.9999C304.933 39.7333 304.667 39.9999 307.333 46.2666C308.133 48.3999 307.2 48.6666 295.6 48.6666C284.133 48.6666 282.933 48.3999 283.6 46.2666C284.4 43.0666 279.067 36.6666 275.6 36.6666C268.533 36.6666 267.2 37.8666 267.733 43.4666L268.267 48.6666H255.333C242.4 48.6666 242.267 48.6666 245.467 46.1333C254.133 39.4666 270 34.8 281.6 35.6C286 35.8666 288.8 35.6 288.4 34.9333C288 34.2666 288.933 34.4 290.4 35.2C294.267 37.2 293.867 37.3333 301.6 30.2666L308.667 23.9999L304.667 19.9999C302.533 17.7333 299.467 15.3333 298 14.4C291.067 10.2666 282.267 14.5333 280.8 22.8C280.267 25.3333 279.467 28.3999 279.067 29.4666C278.533 30.7999 279.333 31.3333 281.733 31.3333C283.6 31.3333 285.467 31.7333 285.733 32.2666C286.133 32.9333 282.133 33.3333 276.8 33.3333C265.2 33.4666 255.2 36.6666 245.067 43.4666C237.867 48.2666 229.333 50.6666 231.467 47.2C232 46.1333 231.467 46.1333 229.467 47.2C225.6 49.3333 226 47.3333 230.667 40.9333C232.933 37.7333 234 35.0666 233.333 34.6666C232.533 34.1333 232.267 33.2 232.667 32.5333C233.2 31.8667 232.533 31.3333 231.467 31.3333C230.267 31.3333 229.333 30.6666 229.333 29.9999C229.333 29.1999 228.267 28.6666 227.067 28.9333C225.467 29.2 224 31.7333 222.533 36.6666C220.267 44.6666 220.667 47.8666 223.6 43.9999C225.333 41.4666 226 42.8 224.533 46.5333C223.2 50 220.533 48.9333 218.933 44.2666L217.6 39.9999L217.467 44.2666C217.333 48.3999 217.067 48.6666 212.533 48.6666C208.667 48.6666 206.4 47.4666 201.067 42.6666C197.333 39.3333 193.867 36.6666 193.333 36.6666C192.8 36.6666 189.067 38.1333 185.067 39.9999C181.2 41.8666 176.533 43.3333 174.667 43.2C172.4 43.2 173.333 42.6666 177.467 41.4666C190.267 37.9999 196.133 32 194.267 24.4C193.733 22.5333 190.933 18.4 188 14.9333C185.067 11.6 181.867 6.93329 180.8 4.66663L179.067 0.399963L177.6 4.39996ZM289.333 18.6666C286.933 21.6 288.667 22.6666 292.667 20.9333C294.533 20.1333 296 19.8666 296 20.4C296 20.9333 293.333 22.2666 290 23.4666C284.133 25.5999 284.133 25.6 285.6 22.8C287.333 19.3333 289.467 16.6666 290.267 16.6666C290.667 16.6666 290.267 17.6 289.333 18.6666ZM69.8667 46.4C71.0667 51.0666 67.4667 47.7333 65.7333 42.5333L64 37.3333L66.6667 40.6666C68 42.5333 69.4667 45.0666 69.8667 46.4ZM277.467 44.2666C279.2 46.3999 279.067 46.5333 277.067 44.8C275.733 43.8667 274.667 42.8 274.667 42.5333C274.667 41.4667 275.733 42.1333 277.467 44.2666ZM323.867 42.5333C322.933 43.4667 313.6 44 312.667 43.2C312.267 42.8 314.8 42.2666 318.267 42.1333C321.733 42 324.267 42.2667 323.867 42.5333ZM84.6667 45.9999C83.3333 47.4666 81.6 48.6666 80.9333 48.6666C80.1333 48.6666 80.6667 47.4666 82 45.9999C83.3333 44.5333 85.0667 43.3333 85.7333 43.3333C86.5333 43.3333 86 44.5333 84.6667 45.9999ZM100 43.9999C100 44.7999 92.5333 48.6666 91.0667 48.6666C90.5333 48.6666 91.8667 47.4666 94 45.9999C97.8667 43.4666 100 42.6666 100 43.9999ZM322.667 48.1333C322.667 48.4 321.467 48.1333 320 47.3333C318.533 46.5333 317.333 45.6 317.333 45.2C317.333 44.9333 318.533 45.1999 320 45.9999C321.467 46.7999 322.667 47.7333 322.667 48.1333ZM52.6667 52.6666C53.0667 53.3333 52.9333 53.9999 52.1333 53.9999C51.4667 53.9999 50.4 53.3333 50 52.6666C49.6 51.8666 49.7333 51.3333 50.5333 51.3333C51.2 51.3333 52.2667 51.8666 52.6667 52.6666ZM63.8667 59.3333L65.3333 63.9999L64.9333 58.2666C64.8 55.1999 65.0667 52.6666 65.6 52.6666C66.2667 52.6666 66.6667 53.8666 66.6667 55.2C66.6667 56.6666 67.3333 58.2667 68.1333 58.8C69.2 59.4667 69.4667 58.6666 69.0667 56.1333C68.1333 51.6 70.9333 52.1333 72.1333 56.8L72.9333 59.9999L74 56.2666C74.5333 53.9999 75.8667 52.6666 77.4667 52.6666C80.6667 52.6666 80.6667 53.7333 77.7333 57.2C76 59.2 76.8 58.9333 80.2667 56.2666C87.3333 51.0666 88 51.8666 82 57.9999C79.2 60.9333 77.3333 63.3333 77.8667 63.3333C78.5333 63.3333 78.2667 64.1333 77.4667 65.2C76.2667 66.6666 76.6667 67.2 79.3333 67.8666C83.3333 68.9333 88 75.8666 88 80.6666C87.8667 83.8666 87.8667 83.7333 86.1333 79.8666C84.1333 75.4666 79.3333 71.3333 76.2667 71.3333C75.0667 71.3333 75.6 72.7999 77.8667 75.4666C82.8 81.3333 82.1333 83.3333 76.9333 78.2666C72.6667 74.1333 69.6 72.5333 71.4667 75.4666C72 76.3999 71.3333 76.4 69.3333 75.3333C65.8667 73.4666 65.8667 73.4666 64.9333 79.4666C64 85.8666 66.9333 88.6666 79.3333 93.3333C84.4 95.2 89.6 97.6 90.8 98.8C92.8 100.667 93.3333 99.7333 97.2 88.1333C99.4667 81.0666 101.333 73.4666 101.333 71.3333C101.333 68.1333 102.133 66.9333 104.933 65.8666C106.933 65.0666 109.6 64.8 110.933 65.0667C113.467 65.7333 113.867 64.9333 112.267 62.4C111.6 61.3333 109.867 61.4667 105.733 62.8C100.667 64.5333 99.7333 64.5333 96.6667 62.5333C93.3333 60.4 86.2667 60.4 80.6667 62.6666C78.5333 63.4666 78.2667 63.3333 79.6 61.9999C80.4 61.0666 84 60 87.6 59.6C91.6 59.2 95.4667 57.7333 97.7333 55.8666C100.933 53.2 103.067 52.6666 110.8 52.6666H120L117.333 55.3333C114.133 58.5333 113.867 64 116.8 65.2C118 65.6 121.333 65.9999 124.4 65.9999C129.6 65.9999 129.733 65.8666 127.067 63.9999C124.267 61.9999 124.267 62 128.933 57.2C131.333 54.5333 133.733 52.6666 134.133 52.9333C134.4 53.3333 132.933 55.4666 130.8 57.8666L126.933 61.9999L135.867 67.3333C146.667 73.8666 152.133 75.0666 156.533 72.2666C160.267 69.7333 161.467 64.6666 159.733 58.2666C158.533 54.1333 158.267 53.8666 157.067 55.8666C155.6 58.5333 148.133 62 144.4 61.8666C142.8 61.8666 143.333 61.1999 146 59.9999C148.267 59.0666 151.2 56.9333 152.533 55.4666C155.867 51.8666 165.467 51.6 170.4 55.0667C179.867 61.6 188.8 62.1333 198 56.6666C205.6 52.1333 216.4 51.0666 217.867 54.6666C218.267 55.7333 219.733 56.6666 221.067 56.6666C222.533 56.6666 224.4 55.7333 225.333 54.6666C226.267 53.6 228.533 52.6666 230.4 52.6666H234L230.4 56.2666L226.8 59.7333L218.8 57.3333C209.333 54.5333 205.467 55.2 199.067 61.0667C195.067 64.8 194.267 66.6666 193.733 72.2666C192.933 80.2666 195.333 86.1333 202 92.6666C206.667 97.2 206.667 97.2 206.667 93.8666C206.667 92.1333 209.067 87.3333 212.133 83.3333C217.067 76.8 217.467 75.4666 216.8 70.4C215.867 63.6 219.333 58.1333 223.2 60.2666C225.2 61.3333 225.067 61.7333 222 64.6666C220.133 66.4 218.667 68.6666 218.667 69.8666C218.667 71.2 219.867 70.6666 222.667 67.9999C228.667 62.2666 227.867 67.0666 221.2 77.2C216.533 84.1333 215.867 86.1333 216.4 90.8C217.2 98.6667 220.933 103.333 228.933 106.8C232.933 108.533 236.8 110 237.733 110C238.933 110 239.333 106.4 239.333 97.6V85.2L233.733 78.4C226.267 69.4666 226 64.7999 232.933 57.7333L237.867 52.6666H257.067C267.733 52.6666 277.333 53.3333 278.8 53.9999C280.533 54.9333 281.333 54.9333 281.333 53.9999C281.333 53.1999 286.4 52.6666 294.667 52.6666C307.867 52.6666 308.133 52.6667 311.733 56.8C314.8 60.1333 316.8 61.0666 323.333 61.8666C327.733 62.4 332.133 63.1999 333.067 63.7333C334.267 64.5333 334.667 63.2 334.667 58.8V52.6666H423.333H512V399.333V746H284H56V541.333C56 378.533 56.4 336.667 57.7333 336.667C61.0667 336.667 62.2667 338.8 62.9333 345.867C63.6 352.267 64.2667 353.733 69.7333 358.933L75.7333 364.667L78 358.133C79.2 354.4 79.7333 350.133 79.2 348.133C78 342.933 72 338.667 63.4667 336.8C56.1333 335.2 55.8667 335.067 58.1333 332.533C59.3333 331.2 63.0667 328.8 66.2667 327.2C74 323.467 81.7333 324.267 89.2 329.467C94.2667 332.933 94.6667 333.733 93.8667 337.333C91.6 347.067 92.2667 348.667 99.7333 353.467L106.667 358L110.667 351.6C115.6 343.733 115.733 340.133 110.8 335.2C107.6 332 105.733 331.333 100.4 331.333C95.6 331.333 93.6 330.667 92.4 328.933C90.2667 325.333 82.4 322 76.2667 322C72.9333 322 68.1333 323.467 63.4667 325.867L56 329.867V322.533V315.067L62.6667 315.6C70.4 316.133 69.4667 314.133 61.4667 313.067C57.2 312.533 56.2667 311.867 57.3333 310.667C58.4 309.333 58.4 308.667 57.2 307.867C56 307.2 56.1333 306.533 57.6 305.467C60.1333 303.6 64.6667 296.667 63.2 296.667C62.6667 296.667 60.9333 297.733 59.4667 298.933C56.6667 301.333 56.6667 301.333 58.9333 298.667C66.5333 289.467 67.0667 265.067 59.8667 248C56.5333 240 56 237.067 56 226.4V214H62.2667H68.5333L64 210C61.4667 207.867 58.5333 206.133 57.7333 206C55.6 206 55.6 204.667 57.3333 200.133C58.1333 197.867 58.1333 196.667 57.3333 196.667C56.5333 196.667 56 192.4 56 187.2V177.6L60.4 178.4C66.2667 179.333 68.6667 177.867 66.9333 174.533C65.4667 171.733 62.6667 157.6 63.4667 156.8C64.4 155.867 66.6667 163.467 66.6667 167.467C66.6667 174.8 68.6667 176.667 76.6667 176.667C82.8 176.667 84.4 177.2 87.7333 180.533L91.6 184.4L94.4 175.467C98.9333 161.467 98 157.2 89.3333 154.667C87.4667 154.133 84.6667 152.133 83.2 150.267C80.8 147.333 79.3333 146.8 74.5333 147.067C67.4667 147.333 58.8 149.733 63.7333 149.867C70.4 150.133 81.0667 159.067 85.8667 168.533C88.8 174.133 88.5333 176.8 85.4667 172C79.6 162.4 72.1333 156.8 64.5333 156.133L59.3333 155.733L59.7333 161.2C60 164.667 59.4667 167.6 58.1333 169.333C56.1333 171.867 56 171.333 56.4 162C56.6667 152.267 56.8 152 60 152.267C61.8667 152.4 62.5333 152.133 61.7333 151.867C60.8 151.467 60 150.267 60 149.2C60 148.133 59.2 146.933 58.1333 146.533C56 145.733 56.1333 143.2 58.2667 140.533C60.4 137.733 61.7333 132.933 62.8 123.333C63.7333 114.8 63.7333 114.8 63.3333 125.333C62.6667 140 62.1333 142.667 60.1333 142.267C59.2 142.133 58.9333 142.533 59.3333 143.333C60 144.4 60.9333 144.267 62.4 142.933C67.0667 138.8 76.6667 135.067 83.8667 134.533L91.3333 134L85.2 135.733C80.1333 137.2 65.3333 145.333 65.3333 146.667C65.3333 146.933 67.6 146.533 70.4 145.867C76.5333 144.4 79.4667 145.333 85.0667 150.267C89.8667 154.4 92.6667 154.533 92.6667 150.667C92.6667 149.333 93.6 147.867 94.6667 147.6C97.2 146.8 98.6667 144.667 98.6667 141.333C98.6667 140 100.533 136.8 102.933 134.4L107.2 130H103.2C101.067 130 96.1333 128.8 92.2667 127.333C80.8 122.933 78.1333 123.6 69.7333 132.267C65.6 136.533 62.9333 138.667 63.7333 137.067C64.6667 135.467 68.4 131.467 72.1333 128.267C78.8 122.4 79.0667 122 78.2667 116.533C77.3333 109.467 74 104.933 66.2667 100.4L60.1333 96.8L59.3333 100.8C58 107.067 56 105.2 56 97.7333C56 91.8666 56.5333 90.2666 59.3333 87.9999C61.6 86.2666 62.9333 83.5999 63.4667 79.9999L64.1333 74.6666L61.7333 78.9333C60.5333 81.3333 58.6667 83.3333 57.7333 83.3333C56.4 83.3333 56.6667 81.9999 58.6667 78.2666L61.3333 73.3333L58.5333 72.9333C56.1333 72.5333 56 72.1333 57.4667 71.2C58.8 70.4 58.8 69.9999 57.7333 69.9999C56.8 69.9999 56 69.3333 56 68.5333C56 67.7333 56.9333 67.3333 58 67.8666C60 68.6666 60.6667 67.1999 59.0667 65.4666C58.5333 65.0666 58 63.8666 57.8667 62.9333C57.7333 62 57.2 60.2666 56.6667 58.9333C55.3333 55.6 58 56.1333 59.8667 59.6C61.2 62.4 61.3333 62.1333 60.9333 57.7333C60.5333 51.8666 61.8667 52.6666 63.8667 59.3333ZM149.333 53.9999C148.267 54.6666 146.4 55.3333 145.333 55.3333C143.6 55.3333 143.6 55.1999 145.333 53.9999C146.4 53.3333 148.267 52.6666 149.333 52.6666C151.067 52.6666 151.067 52.7999 149.333 53.9999ZM330.533 57.8666C330.267 58.6666 329.2 57.6 328.267 55.6C326.8 52.2666 326.8 52.2666 328.8 54.2666C330 55.4666 330.8 57.0666 330.533 57.8666ZM212.267 65.3333C212 67.2 211.2 68.2666 210.533 67.8666C209.867 67.4666 209.867 66 210.667 64.5333C212.533 61.0667 213.067 61.3333 212.267 65.3333ZM53.3333 68.6666C53.3333 69.3333 52.1333 69.9999 50.8 69.9999C49.3333 69.9999 47.0667 70.4 45.7333 70.9333C43.6 71.7333 43.6 71.6 45.2 69.6C47.0667 67.2 53.3333 66.5333 53.3333 68.6666ZM207.733 75.0667C206.933 78.2667 206 80.5333 205.733 80.1333C205.467 79.8666 205.867 77.0666 206.667 73.9999C207.467 70.9333 208.4 68.6666 208.667 68.9333C208.933 69.2 208.533 72 207.733 75.0667ZM53.3333 73.2C53.3333 73.4666 51.4667 75.5999 49.3333 77.9999C45.2 82.3999 45.0667 79.7333 49.0667 74.9333C50.9333 72.9333 53.3333 71.8666 53.3333 73.2ZM232.667 84.6666C236 88.5333 236.133 88.7999 233.2 86.2666C231.333 84.6666 229.333 83.7333 228.933 84.2666C228.4 84.6666 228 84.4 228 83.6C228 82.9333 227.6 81.0666 227.2 79.7333C226.267 77.1999 226.4 77.2 232.667 84.6666ZM205.733 84.6666C206.133 86.1333 205.867 87.7333 205.2 88.1333C204.533 88.5333 204 87.3333 204 85.4666C204 81.3333 204.8 80.9333 205.733 84.6666ZM229.867 90.5333C229.467 92.5333 228.8 93.8666 228.4 93.6C228.133 93.2 228.267 91.3333 228.8 89.4666C229.2 87.4666 229.867 86.1333 230.267 86.4C230.533 86.8 230.4 88.6667 229.867 90.5333ZM231.6 94.2667C231.2 95.3333 230.8 94.9333 230.8 93.4666C230.667 91.9999 231.067 91.1999 231.467 91.7333C231.867 92.1333 232 93.3333 231.6 94.2667ZM233.733 99.3333C234.133 100.8 233.867 101.733 233.2 101.2C232.533 100.8 232 99.6 232 98.5333C232 95.8667 232.933 96.2666 233.733 99.3333ZM30.9333 231.467C34.8 233.467 36.5333 232.933 34.5333 230.267C32.8 228.267 32.9333 228.133 35.0667 229.867C39.3333 233.2 35.4667 234.267 28.1333 231.867C24.4 230.667 21.3333 229.467 21.3333 229.2C21.3333 228.4 28.1333 230.133 30.9333 231.467ZM46 236.667C48.4 237.733 48.2667 237.867 45.0667 237.867C42.9333 238 41.3333 237.333 41.3333 236.667C41.3333 235.067 42.4 235.067 46 236.667ZM39.0667 238.933C38.1333 239.2 36.5333 239.2 35.7333 238.933C34.8 238.533 35.4667 238.267 37.3333 238.267C39.2 238.267 39.8667 238.533 39.0667 238.933ZM60.6667 258.133C63.0667 267.067 63.2 276.4 60.9333 286C57.0667 302.4 56.1333 300 56 273.333C56 246.933 56.9333 243.867 60.6667 258.133ZM12.1333 253.6C11.4667 254.933 10.4 258.133 9.73332 260.667C8.66665 264.8 8.39999 265.067 7.73332 262.267C7.33332 260.667 7.46665 259.6 8.13332 260.133C8.79999 260.533 9.33332 259.067 9.33332 256.8C9.33332 253.467 10.1333 252.267 13.0667 251.467C13.2 251.333 12.8 252.4 12.1333 253.6ZM7.33332 270C8.66665 271.467 9.46665 272.667 9.06665 272.667C8.66665 272.667 7.33332 271.467 5.99999 270C4.66665 268.533 3.86665 267.333 4.26665 267.333C4.66665 267.333 5.99999 268.533 7.33332 270ZM14 274C14.4 274.667 14.2667 275.333 13.4667 275.333C12.8 275.333 11.7333 274.667 11.3333 274C10.9333 273.2 11.0667 272.667 11.8667 272.667C12.5333 272.667 13.6 273.2 14 274ZM26.4 306.667C25.6 308.533 24.5333 309.467 24 308.667C23.2 307.333 14.1333 315.867 12.9333 319.333C12.2667 321.067 12.1333 321.067 12.1333 319.2C12 318.133 13.4667 315.733 15.3333 314C17.0667 312.4 18.2667 310.267 17.7333 309.467C17.3333 308.667 17.3333 308.4 18 308.933C18.5333 309.467 20.8 308.4 22.9333 306.667C27.8667 302.533 28.2667 302.533 26.4 306.667ZM53.3333 317.2C53.3333 318 52.4 317.333 51.3333 315.867C50.2667 314.533 49.3333 312.8 49.3333 312.133C49.3333 311.333 50.2667 312 51.3333 313.467C52.4 314.8 53.3333 316.533 53.3333 317.2ZM102.667 336.667C102.667 337.333 103.733 337.6 105.067 337.2C106.8 336.533 106.933 336.667 105.467 337.733C104.533 338.4 104 339.6 104.4 340.267C104.8 340.933 104.533 342.267 103.733 343.333C102.667 345.067 102.533 344.933 103.067 343.2C103.467 342 102.933 339.733 101.867 338.133C100.667 336.533 100.4 335.333 101.2 335.333C102 335.333 102.667 335.867 102.667 336.667ZM52.6667 347.6C52.2667 352.267 50.9333 361.6 49.7333 368.4L47.6 380.933L44.4 377.6C40.1333 373.467 40 364.267 44 353.733C46.5333 346.933 51.2 339.333 52.8 339.333C53.2 339.333 53.0667 343.067 52.6667 347.6ZM70 343.067C69.6 343.467 68.5333 343.067 67.6 342.133C66.4 340.8 66.5333 340.667 68.4 341.467C69.7333 341.867 70.4 342.667 70 343.067ZM106.933 349.2C106.133 355.6 105.333 355.333 105.333 348.533C105.333 345.6 105.867 343.467 106.4 343.867C106.933 344.267 107.2 346.667 106.933 349.2Z" fill="#EBB760"/>
    <path d="M167.067 60C170.4 65.0667 175.2 76.6667 174.267 77.4667C174 77.7334 172.267 74.5334 170.267 70.2667C168.267 66.1334 165.6 61.3334 164.4 59.7334C162 56.6667 162 56.8 162.133 63.0667C162.133 72.2667 166.133 80.1334 173.067 84.8C176.267 86.9334 179.067 88.6667 179.2 88.6667C179.467 88.6667 181.6 85.7334 183.867 82.2667C190.8 71.3334 188.8 63.8667 178 60.1334L171.867 58.1334L174.933 62.4C177.733 66.2667 177.333 66.1334 170.8 60.6667L163.6 54.6667L167.067 60Z" fill="#EBB760"/>
    <path d="M235.333 59.3333C233.867 60 233.467 60.5333 234.4 60.5333C235.2 60.6667 236 61.6 236 62.6667C236 63.7333 238.667 67.6 242 71.3333C245.333 75.0667 248 77.7333 248 77.3333C248 75.8667 243.733 68 241.733 65.7333C239.867 63.6 240 63.4667 243.867 64.6667C246.533 65.3333 247.733 65.3333 247.333 64.5333C246.8 63.8667 248 64 249.867 64.9333C254.8 67.0667 254.133 68.6667 249.067 67.2C246.8 66.5333 244.667 66.2667 244.4 66.5333C244.133 66.8 246.8 69.2 250.533 71.8667C254.133 74.5333 257.467 77.4667 257.867 78.4C258.533 79.6 258.8 79.6 259.467 78.2667C259.867 77.4667 261.467 76.6667 262.8 76.6667C264.267 76.6667 265.067 76 264.667 75.3333C264.267 74.5333 264.933 73.4667 266.267 72.9333C267.6 72.4 268.8 71.0667 268.8 69.7333C269.067 67.0667 253.333 61.6 247.333 62.2667C245.333 62.5333 243.333 62 243.2 61.3333C242.8 60.5333 245.067 60.1333 248.8 60.5333C252.133 60.8 255.6 60.2667 256.4 59.4667C258.133 57.7333 239.467 57.6 235.333 59.3333Z" fill="#EBB760"/>
    <path d="M66.6666 67.3334C65.4666 68.1334 65.3333 68.6667 66.2666 68.6667C67.0666 68.6667 68.2666 68 68.6666 67.3334C69.7333 65.7334 69.2 65.7334 66.6666 67.3334Z" fill="#EBB760"/>
    <path d="M271.467 68.5333C270 70.8 272.133 73.7333 277.467 77.3333C283.333 81.0666 289.333 83.7333 289.333 82.4C289.333 80.2666 282.267 69.8666 280 68.6666C276.933 67.0666 272.4 66.9333 271.467 68.5333Z" fill="#EBB760"/>
    <path d="M269.333 75.3334C269.333 78.1334 277.467 84.6667 280.8 84.6667C285.467 84.6667 284.667 83.2 277.6 78.6667C269.6 73.6 269.333 73.4667 269.333 75.3334Z" fill="#EBB760"/>
    <path d="M263.067 78.9334C260.4 79.8667 261.067 82.9334 264.267 85.2C267.067 87.2 277.333 88.2667 277.333 86.6667C277.333 86.2667 275.333 84.1334 273.067 82C268.8 78.2667 266.533 77.4667 263.067 78.9334Z" fill="#EBB760"/>
    <path d="M129.467 84.1333C125.467 89.2 125.733 98.2666 130 105.733C131.867 108.933 133.067 112.133 132.667 112.667C132.267 113.333 128.667 115.067 124.533 116.533C113.867 120.533 100 120.133 100 115.733C100 114.267 99.4666 114 98.4 115.067C97.4666 115.733 95.4666 116.667 94 116.933C92.1333 117.333 93.6 118.267 98.5333 119.867C103.733 121.6 108 122.133 113.867 121.6C119.867 121.067 121.067 121.333 118.667 122.267C112.667 124.533 110.667 127.333 110.667 133.6C110.667 140.133 114.267 144.667 121.467 147.2C124.8 148.4 125.333 148.267 125.333 146C125.333 144.667 127.2 142 129.333 140.267C134 136.267 134.267 134.4 130.667 127.333C127.733 121.6 128.133 119.067 132.533 116.133C135.333 114.4 136.133 114.4 142.133 117.467C149.6 121.333 157.6 121.2 166.267 117.067C173.733 113.467 178.667 114.8 181.733 120.933C183.067 123.733 186 127.333 188.267 128.933C190.4 130.667 193.6 133.333 195.467 134.933C199.2 138.4 199.867 137.6 200.933 128.8C201.6 122.4 201.467 121.867 196.8 117.2L192 112.4L182.267 113.333L172.667 114.267L178.667 110C189.067 102.4 200 92.4 199.333 91.2C198.8 90.5333 193.2 94.4 186.8 99.8666C172 112.133 162 117.2 152.667 117.2C148.267 117.2 144.4 116.4 142.133 114.933L138.533 112.533L141.6 107.6C145.6 101.067 145.733 90.2666 141.867 85.0666C138 79.8666 133.067 79.6 129.467 84.1333ZM139.333 86C142.667 89.6 142.4 100.667 139.067 106.133L136.4 110.267L133.333 106C129.333 100.4 128.267 91.0666 131.2 86.6666C133.867 82.6666 136.133 82.4 139.333 86ZM126.267 120.133C125.867 120.533 124.667 120.667 123.733 120.267C122.667 119.867 123.067 119.467 124.533 119.467C126 119.333 126.8 119.733 126.267 120.133ZM125.733 130.933C124.667 138 123.2 140.4 122.267 136.8C121.867 135.2 122.133 134.267 122.8 134.8C123.467 135.2 124 134.267 124 132.8C124 130.133 125.2 126 126 126C126.267 126 126.133 128.267 125.733 130.933Z" fill="#EBB760"/>
    <path d="M76 99.0667C83.0667 110.267 87.4667 114 93.6 114C98.5333 114 99.0667 112.667 97.8667 102.267C97.3333 97.3333 96.6667 94.2667 96.2667 95.3333C95.8667 96.4 95.0667 98.6667 94.5333 100.4L93.3333 103.467L89.7333 100.8C87.6 99.3333 82.8 96.9333 79.0667 95.4667L72 92.6667L76 99.0667Z" fill="#EBB760"/>
    <path d="M60.6667 198.133C60.1333 198.8 60.8 200.667 62.2667 202.267C65.0667 205.333 74.5333 210.533 75.6 209.467C76.9333 208.267 69.2 199.2 65.7333 197.867C61.7333 196.4 61.7333 196.4 60.6667 198.133Z" fill="#EBB760"/>
    <path d="M60.2666 204.8C60.9333 206.8 68.9333 212.667 70.8 212.667C73.4666 212.667 71.6 210 67.0666 207.2C60.2666 202.933 59.6 202.667 60.2666 204.8Z" fill="#EBB760"/>
    <path d="M79.2 239.2C73.6 241.733 67.7333 248.267 66 253.733C65.4666 255.467 65.4666 261.067 66 266.133L66.9333 275.2L71.7333 272C74.4 270.133 77.3333 268.667 78.2666 268.667C81.4666 268.667 90.2666 259.467 92.5333 253.733C96.5333 244 99.0666 239.333 100.267 239.333C100.8 239.333 101.333 238.667 101.333 238C101.333 235.6 85.0666 236.533 79.2 239.2ZM92.6666 241.6C91.2 242 89.0666 242.933 88 243.867C86.2666 245.2 86.2666 245.067 87.8666 242.933C88.8 241.733 90.9333 240.8 92.5333 240.8C95.2 240.933 95.2 241.067 92.6666 241.6ZM82.4 247.733C80.2666 249.467 78.6666 251.467 78.6666 252.267C78.6666 253.067 78.1333 254 77.4666 254.267C76.9333 254.4 75.0666 257.067 73.6 260L70.8 265.333V259.333C70.9333 254.667 71.2 254 71.8666 256.667L72.8 260L73.8666 256.933C74.9333 253.867 83.3333 244.667 85.0666 244.667C85.6 244.8 84.4 246.133 82.4 247.733Z" fill="#EBB760"/>
    <path d="M81.6 288.933C80.6667 289.867 80 291.6 80 292.933C80 296.133 88.4 296.267 96.2667 293.067L101.867 290.8L98 289.2C92.9333 286.933 83.7333 286.8 81.6 288.933Z" fill="#EBB760"/>
    <path d="M69.3333 298.4C61.0667 302.533 57.2 306.933 63.2 305.467C67.7333 304.4 67.6 305.067 62.4 308.667L58 311.6L62.5333 310.8C64.9333 310.4 69.6 310 72.9333 310C76.5333 310 78.5333 309.467 78 308.667C77.6 307.867 77.6 306.533 78.1333 305.733C79.6 303.467 79.4667 299.067 77.8667 296.667C76.8 294.933 75.6 295.2 69.3333 298.4Z" fill="#EBB760"/>
    <path d="M94 295.467C92.5333 296 89.3333 296.533 87.0667 296.533C82.4 296.667 81.2 298.533 84.8 299.867C87.8667 301.067 95.6 299.467 97.3333 297.333C99.2 295.067 97.4667 294 94 295.467Z" fill="#EBB760"/>
    <path d="M87.8666 301.6C84.4 302 82.6666 303.067 81.6 305.333C79.8666 309.067 80.6666 310 85.3333 310C87.4666 310 90.2666 308.533 92.4 306.267C96.2666 302.133 96.9333 300.533 94.4 300.933C93.4666 301.067 90.5333 301.333 87.8666 301.6Z" fill="#EBB760"/>
    <path d="M18.4 4.26667C16.2667 4.53334 14.6667 5.06667 14.6667 5.46667C14.6667 6.8 21.2 16.1333 23.8667 18.5333C25.4667 20 29.4667 21.3333 33.3333 21.7333C38.1333 22.1333 40.6667 23.2 42 25.2C43.0667 26.6667 44 27.2 44 26.4C44 25.6 43.0667 24.2667 42 23.3333C40.9333 22.4 40 20.5333 40 19.0667C40 13.8667 35.6 7.06667 31.2 5.2C26.8 3.33334 25.3333 3.2 18.4 4.26667Z" fill="#EBB760"/>
    <path d="M230.267 14.4C226.533 17.8667 224 21.3333 224 23.0667C224 26.9333 228.267 26.9333 231.2 22.9333C233.333 20 233.333 20 232 22.9333C229.867 27.6 230.4 28 234.267 24.5333C236.933 22.2667 237.333 22.1333 235.6 24.1333C231.2 29.3333 233.867 34.9333 238.8 30.5333C241.867 27.7333 242.667 16.5333 239.467 19.2C238 20.4 237.867 20 238.4 17.3333C238.667 15.3333 238.4 14 237.467 14C236.667 14 236 14.8 236 15.8667C236 16.9333 235.333 18.2667 234.533 18.6667C233.867 19.2 234.133 17.3333 235.333 14.5333C236.4 11.8667 237.2 9.33334 236.933 9.06667C236.667 8.8 233.6 11.2 230.267 14.4Z" fill="#EBB760"/>
    <path d="M5.33333 26.9333C3.33333 29.5999 2.66666 31.7333 3.19999 34.5333C3.59999 36.5333 3.99999 38.7999 3.99999 39.3333C3.99999 39.8666 6.79999 39.5999 10.2667 38.6666C15.2 37.4666 16.9333 36.2666 18.1333 33.4666C18.9333 31.4666 20.4 29.3333 21.3333 28.6666C22.5333 27.8666 21.8667 27.0666 18.9333 25.4666C12.8 22.2666 8.66666 22.7999 5.33333 26.9333Z" fill="#EBB760"/>
    <path d="M296 37.7333C296 39.3333 302.8 42.2666 303.867 41.3333C304.8 40.2666 300.133 36.6666 297.733 36.6666C296.8 36.6666 296 37.2 296 37.7333Z" fill="#EBB760"/>
    <path d="M28.8 152.4C25.2 155.067 21.0666 158.933 19.4666 161.067C17.0666 164.4 16.9333 164.8 18.9333 166.8C21.8666 169.733 26.4 168.533 33.3333 162.667C36.4 160.133 39.4666 158 40.1333 158C42.4 158 41.3333 152.667 38.6666 150C37.2 148.533 35.8666 147.333 35.7333 147.333C35.4666 147.333 32.4 149.6 28.8 152.4Z" fill="#EBB760"/>
    </svg>
