<?xml version="1.0" standalone="no"?>
<!DOCTYPE svg PUBLIC "-//W3C//DTD SVG 20010904//EN"
 "http://www.w3.org/TR/2001/REC-SVG-20010904/DTD/svg10.dtd">
<svg version="1.0" xmlns="http://www.w3.org/2000/svg"
 width="422.000000pt" height="591.000000pt" viewBox="0 0 422.000000 591.000000"
 preserveAspectRatio="xMidYMid meet">

<g transform="translate(0.000000,591.000000) scale(0.100000,-0.100000)"
fill="#000000" stroke="none">
<path d="M1332 5862 c-6 -18 -29 -44 -51 -59 -48 -34 -56 -50 -36 -73 8 -9 15
-32 15 -50 0 -39 10 -33 27 18 l13 37 -5 -35 c-6 -38 -33 -81 -56 -88 -11 -4
-12 -2 -1 9 6 7 12 30 12 51 0 48 -30 79 -104 107 l-51 19 -14 -73 c-16 -86
-11 -117 24 -133 40 -18 50 -14 21 9 -14 11 -26 28 -26 37 1 16 1 16 10 1 5
-9 22 -24 36 -34 l27 -17 -6 37 c-3 21 -14 46 -23 56 -9 11 -12 19 -6 19 16 0
42 -41 43 -70 1 -24 1 -24 10 5 5 17 7 38 5 48 -2 9 0 17 5 17 17 0 20 -48 5
-79 -15 -28 -6 -46 9 -21 4 6 10 8 15 5 5 -3 29 4 52 16 29 14 38 16 28 6 -8
-9 -28 -23 -45 -32 l-30 -15 25 -7 25 -7 -25 -7 c-21 -6 -19 -7 14 -8 70 -2
29 -13 -59 -17 -75 -2 -85 -1 -74 12 13 16 14 16 -24 32 -32 14 -60 4 -77 -28
-6 -11 -15 -20 -21 -20 -6 0 -7 5 -3 11 5 8 1 8 -14 0 -19 -10 -202 -16 -202
-7 0 2 9 25 20 51 l20 46 -48 21 c-115 50 -173 29 -196 -72 l-13 -55 1 72 c1
67 -1 74 -32 110 -18 21 -45 55 -60 75 -31 42 -37 45 -46 21 -3 -10 -21 -40
-41 -67 -40 -55 -44 -85 -14 -112 20 -18 64 -94 55 -94 -2 0 -16 21 -31 46
-29 50 -76 84 -116 84 -32 0 -82 -37 -121 -90 -17 -22 -46 -51 -65 -64 l-34
-23 41 -7 c28 -4 54 -19 84 -46 39 -36 76 -52 76 -32 0 13 56 42 81 42 40 0
10 14 -44 21 l-52 6 52 2 c60 1 83 -6 83 -25 0 -9 -12 -14 -34 -14 -64 0 -97
-45 -115 -160 l-8 -52 34 7 c49 9 123 -4 123 -22 0 -8 -4 -12 -8 -9 -12 7 -58
-43 -71 -77 -14 -36 -14 -67 -1 -67 6 0 10 9 10 20 0 27 22 70 49 94 l21 19 0
-52 c0 -28 -9 -95 -21 -148 -20 -93 -20 -97 -3 -142 32 -81 27 -88 -23 -42
-17 16 -45 56 -62 89 -17 34 -39 65 -48 71 -17 10 -17 10 0 11 25 0 61 -38 91
-99 29 -57 40 -67 24 -21 -7 22 -7 49 2 96 15 79 7 89 -52 68 -21 -7 -52 -11
-68 -8 -16 4 -41 3 -55 0 l-26 -7 30 -28 c17 -16 31 -33 31 -39 0 -5 13 -26
30 -47 16 -20 32 -52 36 -70 3 -19 12 -36 20 -39 8 -3 14 -17 14 -31 0 -14 11
-48 25 -75 29 -58 32 -106 8 -133 -18 -20 -17 -20 15 -14 l32 7 0 -51 c0 -51
0 -51 -27 -44 -16 4 -44 8 -63 10 -19 2 -38 4 -42 4 -5 1 -8 4 -8 9 0 4 21 6
48 4 35 -2 43 0 32 8 -8 6 -40 9 -70 8 -55 -2 -55 -2 -58 30 -4 44 24 98 64
123 19 11 31 25 28 30 -11 18 -69 -28 -91 -72 -28 -53 -29 -79 -4 -158 17 -54
17 -60 2 -52 -9 5 -28 22 -42 38 -57 61 -74 131 -43 178 9 13 13 29 9 35 -10
16 -45 -54 -45 -90 0 -64 68 -164 129 -189 15 -7 38 -29 50 -51 11 -21 28 -40
36 -43 8 -4 -7 35 -36 91 l-51 97 46 -47 c51 -52 63 -48 16 6 l-31 34 36 -2
c20 -2 42 -9 48 -15 9 -10 5 -11 -18 -5 l-30 7 40 -37 c23 -20 47 -34 57 -32
16 4 18 -6 18 -97 -1 -92 -2 -100 -15 -83 -8 11 -15 23 -15 28 0 14 -78 48
-110 48 -17 0 -58 -15 -91 -32 -54 -31 -73 -48 -49 -48 5 0 32 -20 60 -45 57
-51 83 -60 143 -51 80 12 77 23 77 -238 -1 -186 -3 -235 -15 -250 -8 -11 -16
-18 -18 -15 -1 2 -9 16 -16 30 -23 46 -98 125 -151 159 -27 18 -50 39 -50 47
0 9 8 37 17 64 17 48 17 49 -5 76 -12 15 -31 45 -41 65 l-17 37 -48 -42 c-41
-36 -49 -49 -53 -87 -4 -39 -1 -51 22 -78 15 -18 44 -37 68 -44 23 -7 60 -26
81 -43 59 -45 140 -124 134 -131 -3 -3 -35 9 -70 27 -78 38 -120 35 -167 -12
-40 -40 -48 -87 -26 -157 14 -46 19 -53 27 -38 5 9 36 29 68 43 52 22 60 30
79 74 24 58 41 67 86 46 26 -12 38 -28 54 -73 38 -100 38 -135 2 -188 -88
-128 -100 -251 -30 -310 40 -34 49 -33 50 7 0 17 4 41 9 52 5 11 9 -600 9
-1402 l1 -1423 1730 0 1730 0 0 2630 0 2630 -679 0 -679 0 -20 34 c-28 47 -76
62 -143 46 -52 -13 -54 -15 -34 -62 6 -16 -1 -18 -88 -18 -86 0 -95 2 -90 18
6 24 -34 72 -60 72 -53 0 -63 -9 -59 -51 l4 -39 -97 0 c-97 0 -98 0 -74 19 65
50 184 85 271 79 33 -2 54 0 51 5 -3 5 4 4 15 -2 29 -15 26 -16 84 37 l53 47
-30 30 c-16 17 -39 35 -50 42 -52 31 -118 -1 -129 -63 -4 -19 -10 -42 -13 -50
-4 -10 2 -14 20 -14 14 0 28 -3 30 -7 3 -5 -27 -8 -67 -8 -87 -1 -162 -25
-238 -76 -54 -36 -118 -54 -102 -28 4 8 0 8 -15 0 -29 -16 -26 -1 9 47 17 24
25 44 20 47 -6 4 -8 11 -5 16 4 5 -1 9 -9 9 -9 0 -16 5 -16 10 0 6 -8 10 -17
8 -12 -2 -23 -21 -34 -58 -17 -60 -14 -84 8 -55 13 19 18 9 7 -19 -10 -26 -30
-18 -42 17 l-10 32 -1 -32 c-1 -31 -3 -33 -37 -33 -29 0 -46 9 -86 45 -28 25
-54 45 -58 45 -4 0 -32 -11 -62 -25 -29 -14 -64 -25 -78 -24 -17 0 -10 4 21
13 96 26 140 71 126 128 -4 14 -25 45 -47 71 -22 25 -46 60 -54 77 l-13 32
-11 -30z m838 -107 c-18 -22 -5 -30 25 -17 14 6 25 8 25 4 0 -4 -20 -14 -45
-23 -44 -16 -44 -16 -33 5 13 26 29 46 35 46 3 0 0 -7 -7 -15z m-1646 -208 c9
-35 -18 -10 -31 29 l-13 39 20 -25 c10 -14 21 -33 24 -43z m1557 16 c13 -16
12 -17 -3 -4 -10 7 -18 15 -18 17 0 8 8 3 21 -13z m348 13 c-7 -7 -77 -11 -84
-5 -3 3 16 7 42 8 26 1 45 -1 42 -3z m-1794 -26 c-10 -11 -23 -20 -28 -20 -6
0 -2 9 8 20 10 11 23 20 28 20 6 0 2 -9 -8 -20z m115 15 c0 -6 -56 -35 -67
-35 -4 0 6 9 22 20 29 19 45 25 45 15z m1670 -31 c0 -2 -9 0 -20 6 -11 6 -20
13 -20 16 0 2 9 0 20 -6 11 -6 20 -13 20 -16z m-2025 -34 c3 -5 2 -10 -4 -10
-5 0 -13 5 -16 10 -3 6 -2 10 4 10 5 0 13 -4 16 -10z m84 -50 l11 -35 -3 43
c-1 23 1 42 5 42 5 0 8 -9 8 -19 0 -11 5 -23 11 -27 8 -5 10 1 7 20 -7 34 14
30 23 -5 l6 -24 8 28 c4 17 14 27 26 27 24 0 24 -8 2 -34 -13 -15 -7 -13 19 7
53 39 58 33 13 -13 -21 -22 -35 -40 -31 -40 5 0 3 -6 -3 -14 -9 -11 -6 -15 14
-20 30 -8 65 -60 65 -96 -1 -24 -1 -23 -14 6 -15 33 -51 64 -74 64 -9 0 -5
-11 12 -31 37 -44 32 -59 -7 -21 -32 31 -55 43 -41 21 4 -7 -1 -7 -16 1 -26
14 -26 14 -33 -31 -7 -48 15 -69 108 -104 38 -14 77 -32 86 -41 15 -14 19 -7
48 80 17 53 31 110 31 126 0 24 6 33 27 41 15 6 35 8 45 6 19 -5 22 1 10 20
-5 8 -18 7 -49 -3 -38 -13 -45 -13 -68 2 -25 16 -78 16 -120 -1 -16 -6 -18 -5
-8 5 6 7 33 15 60 18 30 3 59 14 76 28 24 20 40 24 98 24 l69 0 -20 -20 c-24
-24 -26 -65 -4 -74 9 -3 34 -6 57 -6 39 0 40 1 20 15 -21 15 -21 15 14 51 18
20 36 34 39 32 2 -3 -9 -19 -25 -37 l-29 -31 67 -40 c81 -49 122 -58 155 -37
28 19 37 57 24 105 -9 31 -11 33 -20 18 -11 -20 -67 -46 -95 -45 -12 0 -8 5
12 14 17 7 39 23 49 34 25 27 97 29 134 3 71 -49 138 -53 207 -12 57 34 138
42 149 15 3 -8 14 -15 24 -15 11 0 25 7 32 15 7 8 24 15 38 15 l27 0 -27 -27
-27 -26 -60 18 c-71 21 -100 16 -148 -28 -30 -28 -36 -42 -40 -84 -6 -60 12
-104 62 -153 35 -34 35 -34 35 -9 0 13 18 49 41 79 37 49 40 59 35 97 -7 51
19 92 48 76 15 -8 14 -11 -9 -33 -14 -13 -25 -30 -25 -39 0 -10 9 -6 30 14 45
43 39 7 -11 -69 -35 -52 -40 -67 -36 -102 6 -59 34 -94 94 -120 30 -13 59 -24
66 -24 9 0 12 27 12 93 l0 93 -42 51 c-56 67 -58 102 -6 155 l37 38 144 0 c80
0 152 -5 163 -10 13 -7 19 -7 19 0 0 6 38 10 100 10 99 0 101 0 128 -31 23
-25 38 -32 87 -38 33 -4 66 -10 73 -14 9 -6 12 4 12 37 l0 46 665 0 665 0 0
-2600 0 -2600 -1710 0 -1710 0 0 1535 c0 1221 3 1535 13 1535 25 0 34 -16 39
-69 5 -48 10 -59 51 -98 l45 -43 17 49 c9 28 13 60 9 75 -9 39 -54 71 -118 85
-55 12 -57 13 -40 32 9 10 37 28 61 40 58 28 116 22 172 -17 38 -26 41 -32 35
-59 -17 -73 -12 -85 44 -121 l52 -34 30 48 c37 59 38 86 1 123 -24 24 -38 29
-78 29 -36 0 -51 5 -60 18 -16 27 -75 52 -121 52 -25 0 -61 -11 -96 -29 l-56
-30 0 55 0 56 50 -4 c58 -4 51 11 -9 19 -32 4 -39 9 -31 18 8 10 8 15 -1 21
-9 5 -8 10 3 18 19 14 53 66 42 66 -4 0 -17 -8 -28 -17 -21 -18 -21 -18 -4 2
57 69 61 252 7 380 -25 60 -29 82 -29 162 l0 93 47 0 47 0 -34 30 c-19 16 -41
29 -47 30 -16 0 -16 10 -3 44 6 17 6 26 0 26 -6 0 -10 32 -10 71 l0 72 33 -6
c44 -7 62 4 49 29 -11 21 -32 127 -26 133 7 7 24 -50 24 -80 0 -55 15 -69 75
-69 46 0 58 -4 83 -29 l29 -29 21 67 c34 105 27 137 -38 156 -14 4 -35 19 -46
33 -18 22 -29 26 -65 24 -53 -2 -118 -20 -81 -21 50 -2 130 -69 166 -140 22
-42 20 -62 -3 -26 -44 72 -100 114 -157 119 l-39 3 3 -41 c2 -26 -2 -48 -12
-61 -15 -19 -16 -15 -13 55 2 73 3 75 27 73 14 -1 19 1 13 3 -7 3 -13 12 -13
20 0 8 -6 17 -14 20 -16 6 -15 25 1 45 16 21 26 57 34 129 7 64 7 64 4 -15 -5
-110 -9 -130 -24 -127 -7 1 -9 -2 -6 -8 5 -8 12 -7 23 3 35 31 107 59 161 63
l56 4 -46 -13 c-38 -11 -149 -72 -149 -82 0 -2 17 1 38 6 46 11 68 4 110 -33
36 -31 57 -32 57 -3 0 10 7 21 15 23 19 6 30 22 30 47 0 10 14 34 32 52 l32
33 -30 0 c-16 0 -53 9 -82 20 -86 33 -106 28 -169 -37 -31 -32 -51 -48 -45
-36 7 12 35 42 63 66 50 44 52 47 46 88 -7 53 -32 87 -90 121 l-46 27 -6 -30
c-10 -47 -25 -33 -25 23 0 44 4 56 25 73 17 13 27 33 31 60 l5 40 -18 -32 c-9
-18 -23 -33 -30 -33 -10 0 -8 10 7 38 l20 37 -21 3 c-18 3 -19 6 -8 13 10 6
10 9 2 9 -7 0 -13 5 -13 11 0 6 7 9 15 5 15 -6 20 5 8 18 -4 3 -8 12 -9 19 -1
7 -5 20 -9 30 -10 25 10 21 24 -5 10 -21 11 -19 8 14 -3 44 7 38 22 -12z m641
40 c-8 -5 -22 -10 -30 -10 -13 0 -13 1 0 10 8 5 22 10 30 10 13 0 13 -1 0 -10z
m1359 -29 c-2 -6 -10 2 -17 17 -11 25 -11 25 4 10 9 -9 15 -21 13 -27z m-887
-56 c-2 -14 -8 -22 -13 -19 -5 3 -5 14 1 25 14 26 18 24 12 -6z m-1192 -25 c0
-5 -9 -10 -19 -10 -11 0 -28 -3 -38 -7 -16 -6 -16 -5 -4 10 14 18 61 23 61 7z
m1158 -48 c-6 -24 -13 -41 -15 -38 -2 2 1 23 7 46 6 23 13 40 15 38 2 -2 -1
-23 -7 -46z m-1158 14 c0 -2 -14 -18 -30 -36 -31 -33 -32 -13 -2 23 14 15 32
23 32 13z m1345 -86 c25 -29 26 -31 4 -12 -14 12 -29 19 -32 15 -4 -3 -7 -1
-7 5 0 5 -3 19 -6 29 -7 19 -6 19 41 -37z m-202 0 c3 -11 1 -23 -4 -26 -5 -3
-9 6 -9 20 0 31 6 34 13 6z m181 -44 c-3 -15 -8 -25 -11 -23 -2 3 -1 17 3 31
3 15 8 25 11 23 2 -3 1 -17 -3 -31z m13 -28 c-3 -8 -6 -5 -6 6 -1 11 2 17 5
13 3 -3 4 -12 1 -19z m16 -38 c3 -11 1 -18 -4 -14 -5 3 -9 12 -9 20 0 20 7 17
13 -6z m-1521 -991 c29 -15 42 -11 27 9 -13 15 -12 16 4 3 32 -25 3 -33 -52
-15 -28 9 -51 18 -51 20 0 6 51 -7 72 -17z m113 -39 c18 -8 17 -9 -7 -9 -16
-1 -28 4 -28 9 0 12 8 12 35 0z m-52 -17 c-7 -2 -19 -2 -25 0 -7 3 -2 5 12 5
14 0 19 -2 13 -5z m162 -144 c18 -67 19 -137 2 -209 -29 -123 -36 -105 -37 95
0 198 7 221 35 114z m-364 34 c-5 -10 -13 -34 -18 -53 -8 -31 -10 -33 -15 -12
-3 12 -2 20 3 16 5 -3 9 8 9 25 0 25 6 34 28 40 1 1 -2 -7 -7 -16z m-36 -123
c10 -11 16 -20 13 -20 -3 0 -13 9 -23 20 -10 11 -16 20 -13 20 3 0 13 -9 23
-20z m50 -30 c3 -5 2 -10 -4 -10 -5 0 -13 5 -16 10 -3 6 -2 10 4 10 5 0 13 -4
16 -10z m93 -245 c-6 -14 -14 -21 -18 -15 -6 10 -74 -54 -83 -80 -5 -13 -6
-13 -6 1 -1 8 10 26 24 39 13 12 22 28 18 34 -3 6 -3 8 2 4 4 -4 21 4 37 17
37 31 40 31 26 0z m202 -79 c0 -6 -7 -1 -15 10 -8 10 -15 23 -15 28 0 6 7 1
15 -10 8 -10 15 -23 15 -28z m370 -146 c0 -5 8 -7 18 -4 13 5 14 4 3 -4 -7 -5
-11 -14 -8 -19 3 -5 1 -15 -5 -23 -8 -13 -9 -12 -5 1 3 9 -1 26 -9 38 -9 12
-11 21 -5 21 6 0 11 -4 11 -10z m-375 -82 c-3 -35 -13 -105 -22 -156 l-16 -94
-24 25 c-32 31 -33 100 -3 179 19 51 54 108 66 108 3 0 2 -28 -1 -62z m130 34
c-3 -3 -11 0 -18 7 -9 10 -8 11 6 5 10 -3 15 -9 12 -12z m277 -46 c-6 -48 -12
-46 -12 5 0 22 4 38 8 35 4 -3 6 -21 4 -40z"/>
<path d="M1253 5445 c25 -38 61 -125 54 -131 -2 -2 -15 22 -30 54 -15 31 -35
67 -44 79 -18 23 -18 22 -17 -25 0 -69 30 -128 82 -163 24 -16 45 -29 46 -29
2 0 18 22 35 48 52 82 37 138 -44 166 l-46 15 23 -32 c21 -29 18 -28 -31 13
l-54 45 26 -40z"/>
<path d="M1765 5450 c-11 -5 -14 -9 -7 -9 6 -1 12 -8 12 -16 0 -8 20 -37 45
-65 25 -28 45 -48 45 -45 0 11 -32 70 -47 87 -14 16 -13 17 16 8 20 -5 29 -5
26 1 -4 5 5 4 19 -3 37 -16 32 -28 -6 -17 -17 5 -33 7 -35 5 -2 -2 18 -20 46
-40 27 -20 52 -42 55 -49 5 -9 7 -9 12 1 3 6 15 12 25 12 11 0 17 5 14 10 -3
6 2 14 12 18 10 4 19 14 19 24 2 20 -116 61 -161 56 -15 -2 -30 2 -31 7 -3 6
14 9 42 6 25 -2 51 2 57 8 13 13 -127 14 -158 1z"/>
<path d="M500 5390 c-9 -6 -10 -10 -3 -10 6 0 15 5 18 10 8 12 4 12 -15 0z"/>
<path d="M2036 5381 c-11 -17 5 -39 45 -66 44 -28 89 -48 89 -38 0 16 -53 94
-70 103 -23 12 -57 13 -64 1z"/>
<path d="M2020 5330 c0 -21 61 -70 86 -70 35 0 29 11 -24 45 -60 38 -62 39
-62 25z"/>
<path d="M1973 5303 c-20 -7 -15 -30 9 -47 21 -15 98 -23 98 -11 0 3 -15 19
-32 35 -32 28 -49 34 -75 23z"/>
<path d="M971 5264 c-30 -38 -28 -106 4 -162 14 -24 23 -48 20 -52 -3 -5 -30
-18 -61 -29 -80 -30 -184 -27 -184 6 0 11 -4 13 -12 5 -7 -5 -22 -12 -33 -14
-14 -3 -3 -10 34 -22 39 -13 71 -17 115 -13 45 4 54 2 36 -5 -45 -17 -60 -38
-60 -85 0 -49 27 -83 81 -102 25 -9 29 -8 29 9 0 10 14 30 30 43 35 30 37 44
10 97 -22 43 -19 62 14 84 21 13 27 13 72 -10 56 -29 116 -28 181 3 56 27 93
17 116 -29 10 -21 32 -48 49 -60 16 -13 40 -33 54 -45 28 -26 33 -20 41 46 5
48 4 52 -31 87 l-36 36 -73 -7 -72 -7 45 32 c78 57 160 132 155 141 -4 5 -46
-24 -94 -65 -111 -92 -186 -130 -256 -130 -33 0 -62 6 -79 17 l-27 18 23 37
c30 49 31 130 2 169 -29 39 -66 41 -93 7z m74 -14 c25 -27 23 -110 -2 -151
l-20 -31 -23 32 c-30 42 -38 112 -16 145 20 30 37 32 61 5z m-98 -256 c-3 -3
-12 -4 -19 -1 -8 3 -5 6 6 6 11 1 17 -2 13 -5z m-4 -81 c-8 -53 -19 -71 -26
-44 -3 12 -1 19 4 15 5 -3 9 4 9 15 0 20 9 51 15 51 2 0 1 -17 -2 -37z"/>
<path d="M570 5152 c53 -84 86 -112 132 -112 37 0 41 10 32 88 -4 37 -9 60
-12 52 -3 -8 -9 -25 -13 -38 l-9 -23 -27 20 c-16 11 -52 29 -80 40 l-53 21 30
-48z"/>
<path d="M455 4409 c-4 -5 1 -19 12 -31 21 -23 92 -62 100 -54 10 9 -48 77
-74 87 -30 11 -30 11 -38 -2z"/>
<path d="M452 4359 c5 -15 65 -59 79 -59 20 0 6 20 -28 41 -51 32 -56 34 -51
18z"/>
<path d="M594 4101 c-42 -19 -86 -68 -99 -109 -4 -13 -4 -55 0 -93 l7 -68 36
24 c20 14 42 25 49 25 24 0 90 69 107 112 30 73 49 108 58 108 4 0 8 5 8 10 0
18 -122 11 -166 -9z m101 -18 c-11 -3 -27 -10 -35 -17 -13 -10 -13 -9 -1 7 7
9 23 16 35 16 20 -1 20 -2 1 -6z m-77 -46 c-16 -13 -28 -28 -28 -34 0 -6 -4
-13 -9 -15 -4 -1 -18 -21 -29 -43 l-21 -40 0 45 c1 35 3 40 8 20 l7 -25 8 23
c8 23 71 92 84 92 4 -1 -5 -11 -20 -23z"/>
<path d="M612 3728 c-7 -7 -12 -20 -12 -30 0 -24 63 -25 122 -1 l42 17 -29 12
c-38 17 -107 18 -123 2z"/>
<path d="M520 3657 c-62 -31 -91 -64 -46 -53 34 8 33 3 -6 -24 l-33 -22 34 6
c18 3 53 6 78 6 27 0 42 4 38 10 -3 6 -3 16 1 22 11 17 10 50 -2 68 -8 13 -17
11 -64 -13z"/>
<path d="M705 3679 c-11 -4 -35 -8 -52 -8 -35 -1 -44 -15 -17 -25 23 -9 81 3
94 19 14 17 1 25 -25 14z"/>
<path d="M659 3633 c-26 -3 -39 -11 -47 -28 -13 -28 -7 -35 28 -35 16 0 37 11
53 28 29 31 34 43 15 40 -7 -1 -29 -3 -49 -5z"/>
<path d="M138 5863 c-16 -2 -28 -6 -28 -9 0 -10 49 -80 69 -98 12 -11 42 -21
71 -24 36 -3 55 -11 65 -26 8 -11 15 -15 15 -9 0 6 -7 16 -15 23 -8 7 -15 21
-15 32 0 39 -33 90 -66 104 -33 14 -44 15 -96 7z"/>
<path d="M1727 5787 c-28 -26 -47 -52 -47 -65 0 -29 32 -29 54 1 16 22 16 22
6 0 -16 -35 -12 -38 17 -12 20 17 23 18 10 3 -33 -39 -13 -81 24 -48 23 21 29
105 5 85 -11 -9 -12 -6 -8 14 2 15 0 25 -7 25 -6 0 -11 -6 -11 -14 0 -8 -5
-18 -11 -21 -5 -4 -3 10 6 31 8 20 14 39 12 41 -2 2 -25 -16 -50 -40z"/>
<path d="M40 5693 c-15 -20 -20 -36 -16 -57 3 -15 6 -32 6 -36 0 -4 21 -2 47
5 37 9 50 18 59 39 6 15 17 31 24 36 9 6 4 12 -18 24 -46 24 -77 20 -102 -11z"/>
<path d="M2220 5612 c0 -12 51 -34 59 -27 7 8 -28 35 -46 35 -7 0 -13 -4 -13
-8z"/>
<path d="M216 4752 c-27 -20 -58 -49 -70 -65 -18 -25 -19 -28 -4 -43 22 -22
56 -13 108 31 23 19 46 35 51 35 17 0 9 40 -11 60 -11 11 -21 20 -22 20 -2 0
-25 -17 -52 -38z"/>
</g>
</svg>
